<?xml version="1.0" encoding="UTF-8"?><svg id="a" xmlns="http://www.w3.org/2000/svg" width="120.8" height="117.8" viewBox="0 0 120.8 117.8"><path d="M60.4,0C27,0,0,27,0,60.4s17.3,49.3,41.3,57.3c3,.6,4.1-1.3,4.1-2.9s0-6.2,0-11.2c-16.8,3.7-20.3-7.1-20.3-7.1-2.7-7-6.7-8.8-6.7-8.8-5.5-3.7,.4-3.7,.4-3.7,6.1,.4,9.3,6.2,9.3,6.2,5.4,9.2,14.1,6.6,17.6,5,.5-3.9,2.1-6.6,3.8-8.1-13.4-1.5-27.5-6.7-27.5-29.8s2.4-12,6.2-16.2c-.6-1.5-2.7-7.7,.6-16,0,0,5.1-1.6,16.6,6.2,4.8-1.3,10-2,15.1-2,5.1,0,10.3,.7,15.1,2,11.5-7.8,16.6-6.2,16.6-6.2,3.3,8.3,1.2,14.5,.6,16,3.9,4.2,6.2,9.6,6.2,16.2,0,23.2-14.1,28.3-27.6,29.8,2.2,1.9,4.1,5.5,4.1,11.2,0,8.1,0,14.6,0,16.6s1.1,3.5,4.1,2.9c24-8,41.3-30.6,41.3-57.3S93.7,0,60.4,0Z" fill="#cb6637" fill-rule="evenodd"/><path d="M22.9,86.7c-.1,.3-.6,.4-1,.2-.4-.2-.7-.6-.5-.9,.1-.3,.6-.4,1-.2,.4,.2,.7,.6,.5,.9h0Zm-.7-.6" fill="#cb6637"/><path d="M25.3,89.4c-.3,.3-.9,.1-1.2-.3-.4-.4-.5-1-.2-1.3,.3-.3,.8-.1,1.2,.3,.4,.4,.5,1,.2,1.3h0Zm-.6-.6" fill="#cb6637"/><path d="M27.7,92.9c-.4,.3-1,0-1.3-.5-.4-.5-.4-1.2,0-1.4,.4-.3,1,0,1.3,.5,.4,.5,.4,1.2,0,1.5h0Zm0,0" fill="#cb6637"/><path d="M31,96.3c-.3,.4-1,.3-1.6-.2-.5-.5-.7-1.2-.3-1.5,.3-.4,1-.3,1.6,.2,.5,.5,.7,1.2,.3,1.5h0Zm0,0" fill="#cb6637"/><path d="M35.5,98.2c-.1,.5-.8,.7-1.5,.5-.7-.2-1.1-.8-1-1.2,.1-.5,.8-.7,1.5-.5,.7,.2,1.1,.8,1,1.2h0Zm0,0" fill="#cb6637"/><path d="M40.4,98.6c0,.5-.6,.9-1.3,.9-.7,0-1.3-.4-1.3-.9,0-.5,.6-.9,1.3-.9,.7,0,1.3,.4,1.3,.9h0Zm0,0" fill="#cb6637"/><path d="M45,97.8c0,.5-.4,1-1.1,1.1-.7,.1-1.3-.2-1.4-.7,0-.5,.4-1,1.1-1.1,.7-.1,1.4,.2,1.4,.7h0Zm0,0" fill="#cb6637"/></svg>