<?xml version="1.0" encoding="utf-8"?>
<!-- Generator: Adobe Illustrator 26.2.1, SVG Export Plug-In . SVG Version: 6.00 Build 0)  -->
<svg version="1.1" id="Layer_1" xmlns="http://www.w3.org/2000/svg" xmlns:xlink="http://www.w3.org/1999/xlink" x="0px" y="0px"
	 viewBox="0 0 200.3 512.7" style="enable-background:new 0 0 200.3 512.7;" xml:space="preserve">
<style type="text/css">
	.st0{fill:#FFFFFF;}
	.st1{fill:#FFF14B;}
	.st2{fill:#2D348D;}
	.st3{fill:#010101;}
	.st4{fill:#5CB9E8;fill-opacity:0.702;}
	.st5{fill:#00ABE9;}
	.st6{fill:url(#SVGID_1_);}
	.st7{fill:url(#SVGID_00000148635872560660376610000006066182477869233545_);}
	.st8{fill:#C43438;}
	.st9{fill:#DB373A;}
	.st10{fill-rule:evenodd;clip-rule:evenodd;fill:#4DBDE4;}
	.st11{fill:#4DBDE4;}
	.st12{fill:#3E914D;}
	.st13{fill:#EA973E;}
	.st14{fill:#DB3832;}
	.st15{fill:url(#SVGID_00000149355852241504846430000006004021242060544932_);}
	.st16{fill:url(#SVGID_00000099621340196966684900000002770704557100852096_);}
	.st17{fill:url(#SVGID_00000120527027594980050610000002299799291677129640_);}
	.st18{fill:url(#SVGID_00000131359225039519424380000007848351412957958068_);}
	.st19{fill:url(#SVGID_00000034771817319465858210000001424348465070500013_);}
	.st20{fill:url(#SVGID_00000004527015092944654820000014626267380977033107_);}
	.st21{fill:url(#SVGID_00000171718628026467184410000017592170129495350170_);}
	.st22{fill:url(#SVGID_00000170990010948130058370000017729658996341898686_);}
	.st23{fill:url(#SVGID_00000061449978353432622340000008096117493009219756_);}
	.st24{fill:url(#SVGID_00000004512053701753976490000000803361661884891800_);}
	.st25{fill:url(#SVGID_00000112599073725823337070000009910045453504688048_);}
	.st26{fill:url(#SVGID_00000133528279792072223340000016432320510994234509_);}
	.st27{fill:#9D2C29;}
	.st28{fill:url(#SVGID_00000039852621449540035970000005580352534909602718_);}
	.st29{fill:url(#SVGID_00000031174883373411553510000005683478096255153571_);}
	.st30{fill:url(#SVGID_00000178923750555688874400000000718895958888654249_);}
	.st31{fill:url(#SVGID_00000088093896622788066900000003055347749245074363_);}
	.st32{fill:#3775B7;}
</style>
<g>
	<path class="st0" d="M128,82.6H5.8V0.3c0-0.9,0.7-1.6,1.6-1.6h119c0.9,0,1.6,0.7,1.6,1.6V82.6z"/>
	<path class="st1" d="M123.8,128.7H9.8c-2.3,0-4.2-1.9-4.2-4.2V80.4H128v44.2C128,126.8,126.1,128.7,123.8,128.7z"/>
	<g>
		<path class="st0" d="M61.2,90.9v22.3c0,1.3-0.2,2.5-0.7,3.4c-0.5,0.9-1.2,1.7-2,2.2c-0.8,0.6-1.8,0.9-2.9,1.2s-2.2,0.3-3.3,0.3
			c-0.6,0-1.2-0.1-2-0.2s-1.6-0.3-2.4-0.5s-1.6-0.5-2.4-0.8c-0.8-0.3-1.4-0.7-1.9-1l2-3.1c0.3,0.2,0.6,0.4,1.1,0.6s1,0.4,1.6,0.5
			c0.6,0.2,1.2,0.3,1.8,0.4c0.6,0.1,1.2,0.2,1.7,0.2c1.4,0,2.5-0.3,3.3-0.8c0.8-0.5,1.2-1.4,1.3-2.7V90.9L61.2,90.9L61.2,90.9z"/>
		<path class="st0" d="M84.4,112.3c0,1-0.2,2-0.6,3c-0.4,1-1,1.8-1.8,2.6c-0.8,0.7-1.7,1.3-2.9,1.8c-1.1,0.4-2.4,0.7-3.9,0.7
			c-0.6,0-1.3,0-1.9-0.1s-1.3-0.2-2-0.3c-0.7-0.2-1.3-0.4-1.9-0.6c-0.6-0.3-1.1-0.6-1.6-1l0.8-3.3c0.4,0.2,0.8,0.4,1.4,0.6
			s1.1,0.4,1.7,0.5c0.6,0.2,1.2,0.3,1.8,0.4c0.6,0.1,1.2,0.2,1.7,0.2c1.6,0,2.8-0.4,3.6-1.1c0.8-0.7,1.3-1.8,1.3-3.3
			c0-0.9-0.3-1.6-0.9-2.3c-0.6-0.6-1.3-1.2-2.2-1.7c-0.9-0.5-1.9-1-2.9-1.5s-2-1.1-2.9-1.8c-0.9-0.7-1.7-1.5-2.3-2.4
			c-0.6-0.9-0.9-2.1-0.9-3.5c0-1.3,0.2-2.4,0.7-3.4c0.5-1,1.1-1.8,1.9-2.5c0.8-0.7,1.7-1.2,2.8-1.6c1-0.4,2.2-0.5,3.3-0.5
			c1.2,0,2.4,0.1,3.6,0.3s2.2,0.6,3,1.1c-0.2,0.3-0.3,0.7-0.5,1.1c-0.2,0.4-0.4,0.8-0.6,1.1c-0.2,0.3-0.3,0.6-0.5,0.9
			c-0.1,0.2-0.2,0.4-0.2,0.4c-0.2-0.1-0.3-0.2-0.5-0.3c-0.2-0.1-0.5-0.3-0.8-0.4c-0.4-0.1-0.8-0.2-1.4-0.3c-0.6-0.1-1.4,0-2.3,0
			c-0.5,0.1-1,0.2-1.5,0.4c-0.5,0.2-0.9,0.5-1.2,0.9c-0.4,0.4-0.7,0.8-0.9,1.2c-0.2,0.5-0.3,0.9-0.3,1.3c0,1,0.3,1.9,0.9,2.5
			c0.6,0.6,1.3,1.2,2.2,1.7c0.9,0.5,1.8,0.9,2.9,1.4c1,0.5,2,1,2.9,1.7s1.6,1.5,2.2,2.4C84.1,109.5,84.4,110.8,84.4,112.3z"/>
	</g>
	<g>
		<path class="st1" d="M45,29.8V18.4c0-1.6,1.3-2.8,2.8-2.8c1.6,0,2.8-1.3,2.8-2.8s-1.3-2.8-2.8-2.8c-4.7,0-8.5,3.8-8.5,8.5v11.4
			c0,3.1-2.6,5.7-5.7,5.7c-1.6,0-2.8,1.3-2.8,2.8c0,1.6,1.3,2.8,2.8,2.8c3.1,0,5.7,2.6,5.7,5.7v11.4c0,4.7,3.8,8.5,8.5,8.5
			c1.6,0,2.8-1.3,2.8-2.8c0-1.6-1.3-2.8-2.8-2.8c-1.6,0-2.8-1.3-2.8-2.8V46.9c0-3.4-1.5-6.4-3.9-8.5C43.4,36.2,45,33.2,45,29.8z"/>
		<circle class="st1" cx="67.7" cy="28.4" r="4.3"/>
		<path class="st1" d="M101.9,35.5c-3.1,0-5.7-2.6-5.7-5.7V18.4c0-4.7-3.8-8.5-8.5-8.5c-1.6,0-2.8,1.3-2.8,2.8s1.3,2.8,2.8,2.8
			c1.6,0,2.8,1.3,2.8,2.8v11.4c0,3.4,1.5,6.4,3.9,8.5c-2.4,2.1-3.9,5.1-3.9,8.5v11.4c0,1.6-1.3,2.8-2.8,2.8c-1.6,0-2.8,1.3-2.8,2.8
			c0,1.6,1.3,2.8,2.8,2.8c4.7,0,8.5-3.8,8.5-8.5V46.9c0-3.1,2.6-5.7,5.7-5.7c1.6,0,2.8-1.3,2.8-2.8
			C104.7,36.7,103.4,35.5,101.9,35.5z"/>
		<path class="st1" d="M67.7,44c-1.6,0-2.8,1.3-2.8,2.8v8.5c0,1.6,1.3,2.8,2.8,2.8s2.8-1.3,2.8-2.8v-8.5C70.6,45.3,69.3,44,67.7,44z
			"/>
	</g>
</g>
<g>
	<path class="st0" d="M120.4,324H6.1v-76.9c0-0.9,0.7-1.6,1.6-1.6h111.1c0.9,0,1.6,0.7,1.6,1.6V324z"/>
	<path class="st2" d="M116.4,369.1H9.7c-2.2,0-3.9-1.7-3.9-3.9v-41.4h114.4v41.4C120.3,367.4,118.5,369.1,116.4,369.1z"/>
	<g>
		<path class="st2" d="M41.1,280.1c1.7,0,3-0.3,4-1c1-0.7,1.5-1.6,1.5-2.8v-5.6c0-2.1,0.4-3.6,1.1-4.6c0.7-1,1.9-1.8,3.5-2.2
			c1.6-0.5,3.9-0.7,6.8-0.7v6.2c-1.3,0-2.2,0.1-2.7,0.3c-0.5,0.2-0.8,0.4-1.1,0.7c-0.3,0.3-0.4,0.8-0.4,1.3v6c0,1.7-0.4,3-1.3,3.8
			c-0.8,0.9-2.2,1.5-4.1,1.7v0.3c1.9,0.3,3.3,0.9,4.1,1.8c0.8,0.9,1.2,2.1,1.2,3.7v6.1c0,0.6,0.2,1,0.5,1.4c0.3,0.3,0.7,0.6,1.2,0.7
			c0.5,0.2,1.4,0.3,2.5,0.3v6.2c-2.9,0-5.2-0.2-6.8-0.7c-1.6-0.5-2.8-1.2-3.5-2.3c-0.7-1-1.1-2.6-1.1-4.7v-5.5
			c0-1.2-0.5-2.1-1.5-2.8c-1-0.7-2.3-1-4-1L41.1,280.1L41.1,280.1L41.1,280.1z"/>
		<path class="st2" d="M89.5,286.8c-1.6,0-3,0.3-3.9,1c-1,0.7-1.5,1.6-1.5,2.8v5.5c0,2.1-0.4,3.6-1.1,4.7c-0.7,1-1.9,1.8-3.5,2.3
			c-1.6,0.5-3.9,0.7-6.8,0.7v-6.2c1.6-0.1,2.7-0.3,3.3-0.7c0.6-0.4,0.9-0.9,0.9-1.7v-6.1c0-1.6,0.4-2.8,1.2-3.7
			c0.8-0.9,2.2-1.5,4.1-1.8v-0.3c-1.9-0.3-3.2-0.8-4.1-1.7c-0.8-0.9-1.3-2.2-1.3-3.8v-6c0-0.6-0.1-1-0.4-1.3
			c-0.3-0.3-0.7-0.6-1.1-0.7c-0.5-0.2-1.3-0.3-2.7-0.3v-6.2c2.9,0,5.2,0.2,6.8,0.7c1.6,0.5,2.8,1.2,3.5,2.2c0.7,1,1.1,2.6,1.1,4.6
			v5.6c0,1.2,0.5,2.1,1.4,2.8s2.3,1,4,1V286.8z"/>
	</g>
	<g>
		<g>
			<path class="st0" d="M47.3,339.8c-1.5,0-2.6,0.6-3.4,1.8c-0.8,1.2-1.2,2.8-1.2,4.9c0,4.3,1.7,6.5,5,6.5c1,0,2-0.1,2.9-0.4
				s1.9-0.6,2.8-1v5.2c-1.9,0.8-4,1.3-6.4,1.3c-3.4,0-6-1-7.8-3c-1.8-2-2.7-4.8-2.7-8.6c0-2.3,0.4-4.4,1.3-6.2s2.1-3.1,3.8-4.1
				c1.7-1,3.6-1.4,5.8-1.4c2.4,0,4.8,0.5,7,1.6l-1.9,4.8c-0.8-0.4-1.7-0.7-2.5-1C49.2,339.9,48.3,339.8,47.3,339.8z"/>
			<path class="st0" d="M72.5,350.8c0,1.4-0.4,2.6-1.1,3.7c-0.7,1.1-1.7,1.9-3.1,2.5c-1.3,0.6-2.9,0.9-4.7,0.9
				c-1.5,0-2.8-0.1-3.8-0.3c-1-0.2-2.1-0.6-3.2-1.1v-5.4c1.2,0.6,2.4,1.1,3.6,1.4c1.3,0.3,2.4,0.5,3.5,0.5c0.9,0,1.6-0.2,2-0.5
				c0.4-0.3,0.6-0.7,0.6-1.2c0-0.3-0.1-0.6-0.3-0.8s-0.4-0.5-0.8-0.7c-0.4-0.2-1.4-0.7-3-1.5c-1.5-0.7-2.6-1.3-3.3-1.9
				c-0.7-0.6-1.3-1.3-1.6-2.2c-0.4-0.8-0.5-1.8-0.5-2.9c0-2.1,0.8-3.7,2.3-4.9c1.5-1.2,3.6-1.7,6.2-1.7c2.3,0,4.7,0.5,7.1,1.6
				l-1.9,4.7c-2.1-1-3.9-1.5-5.5-1.5c-0.8,0-1.4,0.1-1.7,0.4c-0.4,0.3-0.5,0.6-0.5,1c0,0.4,0.2,0.8,0.7,1.2c0.5,0.4,1.7,1,3.7,1.9
				c1.9,0.9,3.3,1.8,4.1,2.8C72.1,348,72.5,349.3,72.5,350.8z"/>
			<path class="st0" d="M90.8,350.8c0,1.4-0.4,2.6-1.1,3.7c-0.7,1.1-1.7,1.9-3.1,2.5c-1.3,0.6-2.9,0.9-4.7,0.9
				c-1.5,0-2.8-0.1-3.8-0.3c-1-0.2-2.1-0.6-3.2-1.1v-5.4c1.2,0.6,2.4,1.1,3.6,1.4c1.3,0.3,2.4,0.5,3.5,0.5c0.9,0,1.6-0.2,2-0.5
				c0.4-0.3,0.6-0.7,0.6-1.2c0-0.3-0.1-0.6-0.3-0.8c-0.2-0.2-0.4-0.5-0.8-0.7c-0.4-0.2-1.4-0.7-3-1.5c-1.5-0.7-2.6-1.3-3.3-1.9
				c-0.7-0.6-1.3-1.3-1.6-2.2c-0.4-0.8-0.5-1.8-0.5-2.9c0-2.1,0.8-3.7,2.3-4.9c1.5-1.2,3.6-1.7,6.2-1.7c2.3,0,4.7,0.5,7.1,1.6
				l-1.9,4.7c-2.1-1-3.9-1.5-5.5-1.5c-0.8,0-1.4,0.1-1.7,0.4c-0.4,0.3-0.5,0.6-0.5,1c0,0.4,0.2,0.8,0.7,1.2c0.5,0.4,1.7,1,3.7,1.9
				c1.9,0.9,3.3,1.8,4.1,2.8C90.4,348,90.8,349.3,90.8,350.8z"/>
		</g>
	</g>
</g>
<g>
	<ellipse class="st0" cx="156.5" cy="107.2" rx="40" ry="39.9"/>
	<path class="st3" d="M156.5,67.1c-22.1,0-40.1,18-40.1,40.1c0,17.7,11.5,32.7,27.4,38c2,0.4,2.7-0.9,2.7-1.9c0-1,0-3.5,0-6.8
		c-11.2,2.4-13.5-5.4-13.5-5.4c-1.8-4.6-4.5-5.9-4.5-5.9c-3.6-2.5,0.3-2.4,0.3-2.4c4,0.3,6.1,4.1,6.1,4.1c3.6,6.1,9.4,4.4,11.7,3.3
		c0.4-2.6,1.4-4.4,2.5-5.3c-8.9-1-18.3-4.4-18.3-19.8c0-4.4,1.6-8,4.1-10.8c-0.4-1-1.8-5.1,0.4-10.6c0,0,3.4-1.1,11,4.1
		c3.2-0.9,6.6-1.3,10-1.4c3.4,0,6.8,0.5,10,1.4c7.6-5.2,11-4.1,11-4.1c2.2,5.5,0.8,9.6,0.4,10.6c2.5,2.8,4.1,6.4,4.1,10.8
		c0,15.4-9.4,18.8-18.3,19.8c1.4,1.2,2.7,3.7,2.7,7.4c0,5.4-0.1,9.7-0.1,11c0,1,0.7,2.3,2.8,1.9c16-5.2,27.5-20.3,27.5-38
		C196.6,85,178.7,67.1,156.5,67.1L156.5,67.1z"/>
</g>
<g>
	<path class="st0" d="M31.3,240.6l-22.2-4.7c-2.3,0-4.2-1.9-4.2-4.2v-42.3c0-2.3,1.9-4.2,4.2-4.2h44.5c2.3,0,4.2,1.9,4.2,4.2l0,43.3
		C57.6,235.7,56.1,239.8,31.3,240.6z"/>
	<g>
		<path class="st4" d="M31.4,203.2c14.6,0,26.4-3.1,26.4-7v37.3c-1.3,5.2-11.8,7-26.4,7v-12.2l0.1,0l1.8,1.9
			c0.6,0.6,1.2,1.1,1.8,1.6c0.6,0.4,1.3,0.8,1.9,1.1c0.7,0.3,1.4,0.4,2.2,0.4l1.7-0.1L42,233v-3.2l-0.4,0.1l-0.5,0.1l-0.5,0.1
			l-0.4,0l-1.3-0.1l-1.2-0.4l-1.1-0.7l-1.2-1.2c1.7-0.6,3-1.6,3.9-3.1c0.9-1.5,1.4-3.3,1.4-5.4c0-2.7-0.8-4.8-2.3-6.4
			c-1.5-1.6-3.6-2.4-6-2.4l-1,0V203.2z M53.2,188.4h4.7v3.1c0,3.9-11.8,7-26.4,7v-7.8C43.4,190.7,53.2,189.7,53.2,188.4z
			 M32.2,213.9c1.3,0,2.4,0.5,3.1,1.5c0.8,1,1.1,2.3,1.1,4.1c0,1.7-0.4,3-1.2,4c-0.8,0.9-1.8,1.4-3.2,1.4l-0.7-0.1v-10.8L32.2,213.9
			z M53.9,228.1v-3.2h-6.5v-14.2h-4v17.4H53.9z"/>
		<path class="st5" d="M31.4,240.5c-14.6,0-26.4-3.1-26.4-7v-37.3c0,3.9,11.8,7,26.4,7v7.2c-2.2,0.2-4.1,1-5.5,2.5
			c-1.6,1.7-2.4,3.9-2.4,6.7c0,1.2,0.2,2.3,0.6,3.4c0.4,1,0.9,2,1.6,2.7c0.7,0.8,1.5,1.4,2.5,1.9c1,0.5,2,0.7,3.2,0.7V240.5z
			 M57.8,188.4h-4.7c0-1.3-9.7-2.3-21.8-2.3s-21.8,1-21.8,2.3c0,1.3,9.7,2.3,21.8,2.3v7.8c-14.6,0-26.4-3.1-26.4-7v-3.1
			c0-3.9,11.8-7,26.4-7C46,181.4,57.8,184.5,57.8,188.4z M9.8,227.3c0.6,0.3,1.4,0.5,2.3,0.7c0.9,0.2,1.8,0.2,2.7,0.2
			c0.9,0,1.8-0.1,2.7-0.3c0.8-0.2,1.6-0.5,2.2-0.9c0.6-0.4,1.1-0.9,1.5-1.6c0.4-0.7,0.6-1.5,0.6-2.4c0-0.7-0.1-1.3-0.3-1.8
			c-0.2-0.5-0.5-1-0.9-1.4c-0.4-0.4-0.9-0.8-1.4-1.1l-1.9-0.9l-1.4-0.6l-1-0.6l-0.6-0.7c-0.2-0.2-0.2-0.5-0.2-0.8
			c0-0.3,0.1-0.5,0.2-0.8l0.6-0.6l0.9-0.4l1.2-0.1l1,0.1l1.1,0.2l1,0.4l0.9,0.5V211c-0.6-0.2-1.2-0.4-1.9-0.5l-2.4-0.2
			c-0.9,0-1.8,0.1-2.6,0.3c-0.8,0.2-1.6,0.5-2.2,0.9c-0.6,0.4-1.1,1-1.5,1.6c-0.4,0.6-0.5,1.4-0.5,2.3c0,1.2,0.3,2.1,1,2.9
			c0.7,0.8,1.7,1.5,3,2.1l1.5,0.6l1.2,0.7l0.8,0.7c0.2,0.3,0.3,0.6,0.3,0.9l-0.2,0.7c-0.1,0.2-0.3,0.4-0.6,0.6l-0.9,0.4l-1.3,0.1
			c-0.8,0-1.7-0.1-2.5-0.4c-0.8-0.3-1.6-0.7-2.3-1.3V227.3z M29,215.4c0.6-0.8,1.5-1.3,2.4-1.4v10.8c-1-0.1-1.8-0.6-2.4-1.4
			c-0.8-1-1.2-2.3-1.2-4C27.8,217.7,28.2,216.4,29,215.4z"/>
	</g>
</g>
<g>
	
		<linearGradient id="SVGID_1_" gradientUnits="userSpaceOnUse" x1="-217.6807" y1="839.1615" x2="-217.4745" y2="838.9553" gradientTransform="matrix(189.38 0 0 -189.81 41347.0039 159644.4531)">
		<stop  offset="0" style="stop-color:#3A7FB8"/>
		<stop  offset="1" style="stop-color:#366A95"/>
	</linearGradient>
	<path class="st6" d="M155.3,355.3c-20.9,0-19.6,9-19.6,9v9.4h19.9v2.9h-27.8c0,0-13.4-1.6-13.4,19.6s11.8,20.4,11.8,20.4h6.8v-9.9
		c0,0-0.4-11.8,11.5-11.8h19.9c0,0,11.1,0.2,11.1-10.8v-17.9c0,0,1.7-10.9-20.1-10.9l0,0L155.3,355.3z M144.3,361.6
		c2,0,3.6,1.5,3.7,3.5c0,2-1.5,3.6-3.5,3.7c-2,0-3.6-1.5-3.7-3.5c0,0,0,0,0,0v-0.1C140.8,363.2,142.4,361.6,144.3,361.6L144.3,361.6
		L144.3,361.6z"/>
	
		<linearGradient id="SVGID_00000018216298206403444460000000702964881347147649_" gradientUnits="userSpaceOnUse" x1="-217.9076" y1="839.3654" x2="-217.672" y2="839.1592" gradientTransform="matrix(189.38 0 0 -189.81 41413.0039 159708.7031)">
		<stop  offset="0" style="stop-color:#FFE051"/>
		<stop  offset="1" style="stop-color:#F6C145"/>
	</linearGradient>
	<path style="fill:url(#SVGID_00000018216298206403444460000000702964881347147649_);" d="M155.8,437.2c20.9,0,19.6-9.1,19.6-9.1
		v-9.4h-19.9v-2.9h27.9c0,0,13.4,1.5,13.4-19.6c0-21.1-11.8-20.4-11.8-20.4h-6.9v9.8c0,0,0.4,11.8-11.5,11.8h-19.9
		c0,0-11.1-0.2-11.1,10.8v18.1c0,0-1.7,10.9,20.1,10.9L155.8,437.2L155.8,437.2z M166.8,430.9c-2,0-3.6-1.5-3.7-3.5
		c0-2,1.5-3.6,3.5-3.7c2,0,3.6,1.5,3.7,3.5c0,0,0,0,0,0v0.1C170.3,429.3,168.7,430.9,166.8,430.9
		C166.7,430.9,166.7,430.9,166.8,430.9L166.8,430.9L166.8,430.9z"/>
</g>
<g>
	<polygon class="st0" points="15.3,426.6 40.4,372.3 51.9,374.9 71.8,417.2 75.9,431.3 68.1,438.1 39.4,438.6 25.8,436.6 	"/>
	<g>
		<g>
			<path id="a" class="st8" d="M46.3,366.7v9.5l25,56.1h-9.5l-5-12.4H46.3v32.9l34-18.9l6.1-52.9L46.3,366.7z M46.3,394.4V412h7.4
				L46.3,394.4z"/>
		</g>
		<g transform="matrix(-1,0,0,1,512,0)">
			<path id="a_00000140730590216733866370000012822802108798972829_" class="st9" d="M46.3,366.7v9.5l-25,56.1h9.5l5-12.4h10.6v32.9
				l-34-18.9l-6.1-52.9L46.3,366.7z M46.3,394.4V412h-7.4L46.3,394.4z"/>
		</g>
	</g>
</g>
<g>
	<circle class="st10" cx="153.3" cy="302" r="8"/>
	<path class="st11" d="M153.2,287.7c10.3,0,20.1,1.5,27.5,4c8.3,2.8,13.3,7.1,13.3,10.3c0,3.5-5.4,7.9-14.3,10.9
		c-7,2.3-16.5,3.6-26.5,3.6c-10.6,0-20.1-1.2-27.1-3.6c-4.4-1.5-7.9-3.4-10.4-5.5c-2.2-1.9-3.3-3.8-3.3-5.3c0-3.3,4.8-7.4,12.9-10.2
		C132.8,289.2,142.8,287.7,153.2,287.7L153.2,287.7L153.2,287.7L153.2,287.7L153.2,287.7 M153.2,283.9c-10.8,0-21.3,1.6-29.2,4.3
		c-9.5,3.3-15.5,8.5-15.5,13.8c0,5.5,6.5,11.1,16.3,14.4c7.4,2.5,17.3,3.8,28.3,3.8c10.5,0,20.3-1.3,27.7-3.8
		c10.2-3.4,16.9-8.9,16.9-14.5c0-5.4-6.2-10.6-15.9-13.9C174.2,285.4,164,283.9,153.2,283.9L153.2,283.9L153.2,283.9L153.2,283.9
		L153.2,283.9 M140.8,294.9c5.1-8.9,11.3-16.7,17.2-21.8c6.6-5.7,12.8-8,15.6-6.4c3,1.7,4.2,8.7,2.3,17.8
		c-1.5,7.3-5.1,16.1-10.1,24.8c-5.3,9.2-11.1,16.8-16.7,21.7c-3.5,3-6.9,5.2-10,6.3c-2.7,1-4.9,1-6.3,0.2c-2.8-1.6-4-7.9-2.4-16.3
		C131.9,313.4,135.6,304,140.8,294.9L140.8,294.9L140.8,294.9L140.8,294.9L140.8,294.9 M137.5,293c-5.4,9.4-9.3,19.2-10.8,27.4
		c-1.9,9.8-0.4,17.6,4.2,20.3c4.8,2.8,12.8-0.1,20.7-6.9c5.9-5.1,12-13.1,17.5-22.6c5.2-9.1,9-18.2,10.6-25.9
		c2.2-10.6,0.8-19.1-4.1-21.9c-4.7-2.7-12.3,0.1-20,6.8C149.2,275.7,142.8,283.8,137.5,293L137.5,293L137.5,293L137.5,293L137.5,293
		 M140.8,309.3c-5.2-8.9-8.8-18.1-10.3-25.8c-1.7-8.6-0.6-15,2.2-16.7c3-1.7,9.6,0.7,16.6,6.9c5.5,4.9,11.4,12.4,16.4,21.2
		c5.3,9.2,9,18,10.4,25.3c0.9,4.5,1,8.6,0.4,11.8c-0.5,2.9-1.6,4.8-2.9,5.5c-2.8,1.6-8.8-0.5-15.3-6.1
		C152.3,326.3,146,318.3,140.8,309.3L140.8,309.3L140.8,309.3L140.8,309.3L140.8,309.3 M137.5,311.2c5.4,9.4,12,17.6,18.3,23.1
		c7.6,6.5,15.1,9.2,19.7,6.5c4.8-2.8,6.3-11.2,4.3-21.4c-1.5-7.7-5.4-16.9-10.9-26.4c-5.3-9.1-11.3-16.9-17.2-22.1
		c-8.1-7.2-16.1-10.2-21-7.4c-4.7,2.7-6,10.7-4.1,20.7C128.3,292.4,132.1,302,137.5,311.2L137.5,311.2L137.5,311.2L137.5,311.2
		L137.5,311.2"/>
</g>
<path class="st12" d="M68.9,446.3c-0.5,0-0.9,0.4-0.9,0.9v17.1L64,462c-0.2-0.1-0.5-0.2-0.8-0.2c-0.3,0-0.5,0.1-0.8,0.2l-9.3,5.4
	c-0.5,0.3-0.8,0.8-0.8,1.4v10.9c0,0.6,0.3,1.1,0.8,1.4l9.3,5.4c0.2,0.1,0.5,0.2,0.8,0.2c0.3,0,0.5-0.1,0.8-0.2l9.3-5.4
	c0.5-0.3,0.8-0.8,0.8-1.4v-5.4v-5.4v-18.7c0-0.6-0.3-1.1-0.8-1.3l-4.1-2.4C69.2,446.3,69,446.3,68.9,446.3z M38.4,461.8
	c-0.3,0-0.5,0.1-0.8,0.2l-9.3,5.4c-0.5,0.3-0.8,0.8-0.8,1.4v10.9c0,0.6,0.3,1.1,0.8,1.4l9.3,5.4c0.5,0.3,1.1,0.3,1.6,0l9.3-5.4
	c0.5-0.3,0.8-0.8,0.8-1.4v-10.9c0-0.6-0.3-1.1-0.8-1.4l-9.3-5.4C38.9,461.9,38.6,461.8,38.4,461.8z M88.1,461.8
	c-0.3,0-0.5,0.1-0.8,0.2l-9.3,5.4c-0.5,0.3-0.8,0.8-0.8,1.4v10.9c0,0.6,0.3,1.1,0.8,1.4l9,5.5c0.5,0.3,1.1,0.3,1.6,0l4.4-2.6
	c0.5-0.3,0.5-0.9,0-1.2l-9.6-5.7v-5.6l4.7-2.7l4.7,2.7v3.9c0,0.5,0.4,0.6,0.7,0.4c1.2-0.7,4.7-2.7,4.7-2.7c0.5-0.3,0.8-0.8,0.8-1.3
	v-2.9c0-0.6-0.3-1.1-0.8-1.4l-9.3-5.4C88.7,461.9,88.4,461.8,88.1,461.8z M13.5,461.8c-0.3,0-0.5,0.1-0.8,0.2l-9.3,5.4
	c-0.5,0.3-0.8,0.8-0.8,1.4v13.9c0,0.7,0.7,1.1,1.3,0.8l4.1-2.4c0.5-0.3,0.8-0.8,0.8-1.3v-8.2l4.7-2.7l4.7,2.7v8.2
	c0,0.6,0.3,1.1,0.8,1.3l4.1,2.4c0.6,0.3,1.3-0.1,1.3-0.8v-13.9c0-0.6-0.3-1.1-0.8-1.4l-9.3-5.4C14,461.9,13.7,461.8,13.5,461.8z
	 M63.3,468.8l4.7,2.7v2.8v2.8l-4.7,2.7l-4.7-2.7v-5.5L63.3,468.8z M88.1,471.2l-2.7,1.6v3.1l2.7,1.5l2.7-1.5v-3.1L88.1,471.2z
	 M50.5,483.6c-0.3,0-0.6,0.1-0.9,0.2l-8.8,5.1c-0.6,0.3-0.9,0.9-0.9,1.6v10.1c0,0.7,0.4,1.3,0.9,1.6l2.3,1.3c1.1,0.5,1.5,0.5,2,0.5
	c1.6,0,2.6-1,2.6-2.7v-10c0-0.2-0.1-0.3-0.3-0.3h-1.1c-0.2,0-0.3,0.1-0.3,0.3v10c0,0.8-0.8,1.5-2.1,0.9l-2.4-1.4
	c-0.1,0-0.1-0.1-0.1-0.2v-10.1c0-0.1,0-0.2,0.1-0.2l8.8-5c0.1,0,0.2,0,0.3,0l8.8,5c0.1,0,0.1,0.1,0.1,0.2v10.1
	c0,0.1-0.1,0.2-0.1,0.2l-8.8,5.1c-0.1,0-0.2,0-0.3,0l-2.2-1.3c-0.1,0-0.2,0-0.2,0c-0.6,0.4-0.7,0.4-1.3,0.6c-0.2,0-0.4,0.1,0.1,0.4
	l2.9,1.7c0.3,0.2,0.6,0.2,0.9,0.2c0.3,0,0.7-0.1,0.9-0.3l8.8-5.1c0.6-0.3,0.9-0.9,0.9-1.6v-10.1c0-0.7-0.4-1.3-0.9-1.6l-8.8-5.1
	C51.2,483.7,50.8,483.6,50.5,483.6z M63.9,489.3h0.3c0.1,0,0.3,0,0.3,0.3c0,0.1,0,0.3-0.3,0.3h-0.3V489.3z M52.9,490.8
	c-2.5,0-4,1.1-4,2.8c0,1.9,1.5,2.4,3.9,2.7c2.9,0.3,3.1,0.7,3.1,1.3c0,1-0.8,1.4-2.6,1.4c-2.3,0-2.8-0.6-3-1.7
	c0-0.1-0.1-0.2-0.3-0.2h-1.1c-0.1,0-0.3,0.1-0.3,0.3c0,1.5,0.8,3.2,4.6,3.2c2.8,0,4.4-1.1,4.4-3c0-1.9-1.3-2.4-4-2.8
	c-2.7-0.4-3-0.5-3-1.2c0-0.5,0.2-1.2,2.2-1.2c1.8,0,2.5,0.4,2.7,1.6c0,0.1,0.1,0.2,0.2,0.2H57c0.1,0,0.1,0,0.2-0.1
	c0-0.1,0.1-0.1,0.1-0.2C57,491.8,55.7,490.8,52.9,490.8z"/>
<g>
	<path class="st0" d="M196.7,212.6H99.5v-65.1c0-0.9,0.7-1.6,1.6-1.6h94c0.9,0,1.6,0.7,1.6,1.6V212.6z"/>
	<path class="st13" d="M193.4,250.6h-90.7c-1.8,0-3.3-1.5-3.3-3.3v-35.2h97.3v35.2C196.8,249.2,195.3,250.6,193.4,250.6z"/>
	<g>
		<path class="st13" d="M136.1,191.5l-22.9-10.2v-3.9l22.9-11.5v6.7l-14.1,6.4l14.1,5.7L136.1,191.5L136.1,191.5z"/>
		<path class="st13" d="M158.3,161.9L145.9,196h-7.9l12.4-34.1C150.4,161.9,158.3,161.9,158.3,161.9z"/>
		<path class="st13" d="M160,184.8l14.1-5.7l-14.1-6.4v-6.7l22.9,11.5v3.9L160,191.5V184.8z"/>
	</g>
	<g>
		<path class="st0" d="M127.9,241.1h-5.5V233h-6.3v8.2h-5.5v-20.1h5.5v7.4h6.3v-7.4h5.5C127.9,221.1,127.9,241.1,127.9,241.1z"/>
		<path class="st0" d="M141.1,241.1h-5.4v-15.6h-4.9v-4.4H146v4.4h-4.9L141.1,241.1L141.1,241.1z"/>
		<path class="st0" d="M157.6,241.1l-4.1-14.5h-0.1c0.2,2.5,0.3,4.4,0.3,5.7v8.7h-4.8v-20.1h7.2l4.2,14.3h0.1l4.1-14.3h7.2v20.1h-5
			v-8.8c0-0.5,0-1,0-1.5c0-0.6,0.1-1.9,0.2-4.1h-0.1l-4.1,14.4L157.6,241.1L157.6,241.1z"/>
		<path class="st0" d="M176.1,241.1v-20.1h5.4v15.7h7.7v4.4H176.1z"/>
	</g>
</g>
<path class="st14" d="M91.5,165v4.5h7.6c1.6,0,4.3-1.2,4.4-4.6v-1.7c0-2.9-2.2-4.6-4.4-4.6h-3.8v-2.1h7.6v-4.5h-7.2
	c-1.9,0-4.4,1.6-4.4,4.7v1.6c0,3.1,2.5,4.6,4.4,4.6c5.3,0-1.3,0,3.6,0v2.2C99.2,165,91.5,165,91.5,165z M50.5,163.9
	c0,0,4.1-0.4,4.1-6s-5-6.1-5-6.1h-8.9v17.7h4.5v-4.3l3.9,4.3h6.6C55.7,169.5,50.5,163.9,50.5,163.9z M48.8,160.3h-3.6v-4h3.6
	c0,0,1,0.4,1,2S48.8,160.3,48.8,160.3z M65.7,151.9h-4.6c-3.3,0-4.4,3.1-4.4,4.6v12.9h4.6v-3.1h4.3v3.1H70v-12.9
	C70,152.8,66.8,151.9,65.7,151.9z M65.6,161.4h-4.3v-4.3c0,0,0-1,1.4-1h1.6c1.3,0,1.3,1,1.3,1L65.6,161.4
	C65.6,161.4,65.6,161.4,65.6,161.4z M72.1,151.9h4.7v17.6h-4.7V151.9z M83.5,165v-13h-4.7v17.6h11.1V165C89.9,165,83.5,165,83.5,165
	z M12.5,169.5H31c0,0-3.5-17.1,8.2-24c2.5-1.3,10.7-6.2,23.9,4.2c0.4-0.4,0.8-0.7,0.8-0.7s-12.2-12.9-25.7-11.4
	c-6.8,0.6-15.2,7.2-20.1,15.9S12.5,169.5,12.5,169.5z M12.5,169.5H31c0,0-3.5-17.1,8.2-24c2.5-1.3,10.7-6.2,23.9,4.2
	c0.4-0.4,0.8-0.7,0.8-0.7s-12.2-12.9-25.7-11.4c-6.8,0.6-15.2,7.2-20.1,15.9S12.5,169.5,12.5,169.5z M12.5,169.5H31
	c0,0-3.5-17.1,8.2-24c2.5-1.3,10.7-6.2,23.9,4.2c0.4-0.4,0.8-0.7,0.8-0.7s-12.2-12.9-25.7-11.4c-6.8,0.6-15.2,7.2-20.1,15.9
	S12.5,169.5,12.5,169.5z M51,139l0.1-1.7c-0.2-0.1-0.8-0.4-2.3-0.9l-0.1,1.6C49.5,138.3,50.3,138.6,51,139z M48.8,144.2l-0.1,1.6
	c0.8,0,1.5,0.1,2.3,0.3l0.1-1.5C50.3,144.4,49.5,144.3,48.8,144.2z M40.1,136.5h0.2l-0.5-1.5c-0.7,0-1.5,0-2.2,0.1l0.4,1.5
	C38.8,136.5,39.5,136.5,40.1,136.5z M41.3,145.6l0.5,1.7c0.7-0.3,1.4-0.6,2-0.9l-0.5-1.6C42.5,145.1,41.8,145.3,41.3,145.6z
	 M30.6,139.1l-1.1-1.7c-0.6,0.3-1.2,0.7-1.8,1.1l1.1,1.7C29.5,139.8,30,139.4,30.6,139.1z M35.4,150.2l1.1,1.8
	c0.4-0.6,0.9-1.2,1.4-1.8l-1.1-1.7C36.4,149.1,35.9,149.7,35.4,150.2z M32.1,158.2l1.9,1.6c0.1-1,0.3-1.9,0.5-2.9l-1.7-1.4
	C32.4,156.4,32.2,157.3,32.1,158.2z M21.8,146.5l-1.7-1.5c-0.6,0.6-1.2,1.2-1.7,1.9l1.8,1.6C20.7,147.7,21.2,147.1,21.8,146.5z
	 M14.7,157.5l-2.7-1c-0.4,1.1-0.9,2.3-1.2,3l2.7,1C13.9,159.7,14.4,158.5,14.7,157.5z M31.7,164.5c0,1.3,0.2,2.4,0.3,3.1l2.8,1.1
	c-0.2-1-0.4-2.1-0.6-3.2C34.2,165.5,31.7,164.5,31.7,164.5z"/>
<g>
	
		<linearGradient id="SVGID_00000120553837580725048680000009259655663109732774_" gradientUnits="userSpaceOnUse" x1="-84.5648" y1="635.9915" x2="-84.6117" y2="636.0746" gradientTransform="matrix(202.9347 0 0 -202.7803 17314.6309 129463.9922)">
		<stop  offset="0" style="stop-color:#E27359"/>
		<stop  offset="0" style="stop-color:#E27359"/>
		<stop  offset="0.41" style="stop-color:#DB3832"/>
		<stop  offset="0.99" style="stop-color:#992B28"/>
		<stop  offset="1" style="stop-color:#992B28"/>
	</linearGradient>
	<path style="fill:url(#SVGID_00000120553837580725048680000009259655663109732774_);" d="M148.8,478L123,493.3l33.4-2.3l2.6-33.7
		L148.8,478z"/>
	
		<linearGradient id="SVGID_00000133496803894072440580000006212460733307821219_" gradientUnits="userSpaceOnUse" x1="-84.4355" y1="634.4114" x2="-84.6393" y2="634.4852" gradientTransform="matrix(60.3079 0 0 -111.7781 5250.3965 71396.5859)">
		<stop  offset="0" style="stop-color:#872522"/>
		<stop  offset="0" style="stop-color:#872522"/>
		<stop  offset="0.99" style="stop-color:#912926"/>
		<stop  offset="1" style="stop-color:#912926"/>
	</linearGradient>
	<path style="fill:url(#SVGID_00000133496803894072440580000006212460733307821219_);" d="M156.5,491l-2.9-19.8l-7.8,10.3L156.5,491
		z"/>
	
		<linearGradient id="SVGID_00000159442473305810277970000003471589704120026803_" gradientUnits="userSpaceOnUse" x1="-84.5236" y1="619.8862" x2="-84.5888" y2="620.2614" gradientTransform="matrix(188.3195 0 0 -21.9864 16065.8643 14127.0137)">
		<stop  offset="0" style="stop-color:#872522"/>
		<stop  offset="0" style="stop-color:#872522"/>
		<stop  offset="0.99" style="stop-color:#912926"/>
		<stop  offset="1" style="stop-color:#912926"/>
	</linearGradient>
	<path style="fill:url(#SVGID_00000159442473305810277970000003471589704120026803_);" d="M156.5,491l-21-1.7l-12.4,3.9L156.5,491z"
		/>
	
		<linearGradient id="SVGID_00000183236225588812795250000013250746382472018594_" gradientUnits="userSpaceOnUse" x1="-82.5588" y1="634.0693" x2="-82.5296" y2="633.9418" gradientTransform="matrix(65.2221 0 0 -97.0999 5507.2837 62045.3867)">
		<stop  offset="0" style="stop-color:#FFFFFF"/>
		<stop  offset="0" style="stop-color:#FFFFFF"/>
		<stop  offset="0.23" style="stop-color:#E27253"/>
		<stop  offset="0.46" style="stop-color:#DB3E32"/>
		<stop  offset="0.99" style="stop-color:#A62F2B"/>
		<stop  offset="1" style="stop-color:#A62F2B"/>
	</linearGradient>
	<path style="fill:url(#SVGID_00000183236225588812795250000013250746382472018594_);" d="M123.1,493.3l5.3-17.2l-11.6,2.5
		L123.1,493.3z"/>
	
		<linearGradient id="SVGID_00000119825942301145737500000013825915868094018483_" gradientUnits="userSpaceOnUse" x1="-84.0986" y1="633.9136" x2="-84.0919" y2="633.7953" gradientTransform="matrix(105.3202 0 0 -106.8253 8993.0049 68183.7812)">
		<stop  offset="0" style="stop-color:#FFFFFF"/>
		<stop  offset="0" style="stop-color:#FFFFFF"/>
		<stop  offset="0.23" style="stop-color:#E2724F"/>
		<stop  offset="0.56" style="stop-color:#BE3330"/>
		<stop  offset="0.99" style="stop-color:#A82F2C"/>
		<stop  offset="1" style="stop-color:#A82F2C"/>
	</linearGradient>
	<path style="fill:url(#SVGID_00000119825942301145737500000013825915868094018483_);" d="M145.8,481.6l-4.8-18.9l-13.8,13
		L145.8,481.6z"/>
	
		<linearGradient id="SVGID_00000114070817484070689270000003418613731032707734_" gradientUnits="userSpaceOnUse" x1="-84.6545" y1="630.1434" x2="-84.6322" y2="630.007" gradientTransform="matrix(94.3212 0 0 -66.4185 8132.0742 42307.25)">
		<stop  offset="0" style="stop-color:#FFFFFF"/>
		<stop  offset="0" style="stop-color:#FFFFFF"/>
		<stop  offset="0.18" style="stop-color:#E06543"/>
		<stop  offset="0.4" style="stop-color:#C73531"/>
		<stop  offset="0.99" style="stop-color:#A82F2C"/>
		<stop  offset="1" style="stop-color:#A82F2C"/>
	</linearGradient>
	<path style="fill:url(#SVGID_00000114070817484070689270000003418613731032707734_);" d="M157.9,462.9l-13.1-10.7l-3.6,11.8
		L157.9,462.9z"/>
	
		<linearGradient id="SVGID_00000001661195730705835160000000275734553718896779_" gradientUnits="userSpaceOnUse" x1="-84.3136" y1="614.1207" x2="-84.1856" y2="614.3071" gradientTransform="matrix(70.7666 0 0 -24.3007 6107.5288 15374.4502)">
		<stop  offset="0" style="stop-color:#FFFFFF"/>
		<stop  offset="0" style="stop-color:#FFFFFF"/>
		<stop  offset="0.54" style="stop-color:#C73531"/>
		<stop  offset="0.99" style="stop-color:#BF3430"/>
		<stop  offset="1" style="stop-color:#BF3430"/>
	</linearGradient>
	<path style="fill:url(#SVGID_00000001661195730705835160000000275734553718896779_);" d="M151.8,448.4l-7.7,4.3l-4.9-4.3
		L151.8,448.4z"/>
	
		<linearGradient id="SVGID_00000003795904684133797310000001031836463987110061_" gradientUnits="userSpaceOnUse" x1="-74.4744" y1="632.1115" x2="-74.4334" y2="632.0087" gradientTransform="matrix(18.1773 0 0 -72.6448 1468.4258 46393.7891)">
		<stop  offset="0" style="stop-color:#FFFFFF"/>
		<stop  offset="0" style="stop-color:#FFFFFF"/>
		<stop  offset="0.31" style="stop-color:#DC4433"/>
		<stop  offset="0.99" style="stop-color:#BF3430"/>
		<stop  offset="1" style="stop-color:#BF3430"/>
	</linearGradient>
	<path style="fill:url(#SVGID_00000003795904684133797310000001031836463987110061_);" d="M113.8,484.3l3.2-5.9l-2.6-7L113.8,484.3z
		"/>
	<path class="st0" d="M114.2,471.2l2.6,7.4l11.4-2.6l13-12.1l3.7-11.7l-5.8-4.1l-9.8,3.7c-3.1,2.9-9.1,8.6-9.3,8.7
		C119.8,460.7,116,467.8,114.2,471.2L114.2,471.2z"/>
	
		<linearGradient id="SVGID_00000040541223907132343540000013931955691310040449_" gradientUnits="userSpaceOnUse" x1="-84.309" y1="634.9551" x2="-84.0875" y2="635.1833" gradientTransform="matrix(158.1624 0 0 -157.9374 13444.0801 100766.8125)">
		<stop  offset="0" style="stop-color:#BD3330"/>
		<stop  offset="0" style="stop-color:#BD3330"/>
		<stop  offset="7.000000e-02" style="stop-color:#FFFFFF"/>
		<stop  offset="0.17" style="stop-color:#FFFFFF"/>
		<stop  offset="0.27" style="stop-color:#C63531"/>
		<stop  offset="0.33" style="stop-color:#822420"/>
		<stop  offset="0.46" style="stop-color:#A22E2A"/>
		<stop  offset="0.72" style="stop-color:#B3322E"/>
		<stop  offset="0.99" style="stop-color:#DB3832"/>
		<stop  offset="1" style="stop-color:#DB3832"/>
	</linearGradient>
	<path style="fill:url(#SVGID_00000040541223907132343540000013931955691310040449_);" d="M123.4,457.8c6.7-6.7,15.4-10.6,18.7-7.2
		c3.3,3.4-0.2,11.5-6.9,18.2c-6.7,6.7-15.3,10.8-18.6,7.5C113.3,472.9,116.7,464.5,123.4,457.8L123.4,457.8z"/>
	
		<linearGradient id="SVGID_00000139265529555827199240000013691536733207123341_" gradientUnits="userSpaceOnUse" x1="-84.1554" y1="633.979" x2="-84.2385" y2="634.0057" gradientTransform="matrix(127.0738 0 0 -97.4086 10830.3477 62242.3125)">
		<stop  offset="0" style="stop-color:#8B2724"/>
		<stop  offset="0" style="stop-color:#8B2724"/>
		<stop  offset="0.54" style="stop-color:#992B28"/>
		<stop  offset="0.99" style="stop-color:#A82F2C"/>
		<stop  offset="1" style="stop-color:#A82F2C"/>
	</linearGradient>
	<path style="fill:url(#SVGID_00000139265529555827199240000013691536733207123341_);" d="M123.1,493.3l5.2-17.3l17.3,5.6
		C139.4,487.4,132.5,492.4,123.1,493.3L123.1,493.3z"/>
	
		<linearGradient id="SVGID_00000040543045565642299900000007785358184189075331_" gradientUnits="userSpaceOnUse" x1="-84.5832" y1="633.782" x2="-84.6829" y2="633.8616" gradientTransform="matrix(94.0112 0 0 -105.6032 8106.2915 67404.0234)">
		<stop  offset="0" style="stop-color:#7E231F"/>
		<stop  offset="0" style="stop-color:#7E231F"/>
		<stop  offset="0.99" style="stop-color:#9E2C29"/>
		<stop  offset="1" style="stop-color:#9E2C29"/>
	</linearGradient>
	<path style="fill:url(#SVGID_00000040543045565642299900000007785358184189075331_);" d="M141.3,464l4.4,17.6
		c5.2-5.5,9.9-11.4,12.2-18.7L141.3,464L141.3,464z"/>
	
		<linearGradient id="SVGID_00000179630928650368572900000008289966589908211861_" gradientUnits="userSpaceOnUse" x1="-84.6283" y1="631.4733" x2="-84.6868" y2="631.5343" gradientTransform="matrix(79.7018 0 0 -81.7914 6903.0005 52108.2461)">
		<stop  offset="0" style="stop-color:#79211E"/>
		<stop  offset="0" style="stop-color:#79211E"/>
		<stop  offset="0.99" style="stop-color:#9E2D29"/>
		<stop  offset="1" style="stop-color:#9E2D29"/>
	</linearGradient>
	<path style="fill:url(#SVGID_00000179630928650368572900000008289966589908211861_);" d="M157.9,462.9c1.8-5.4,2.2-13.1-6.2-14.5
		l-6.9,3.8L157.9,462.9L157.9,462.9z"/>
	<path class="st27" d="M113.8,484.2c0.2,8.9,6.6,9,9.4,9.1l-6.3-14.7L113.8,484.2L113.8,484.2z"/>
	
		<radialGradient id="SVGID_00000181766784609500159320000016077680772562390435_" cx="-84.661" cy="627.912" r="0.1234" gradientTransform="matrix(93.1133 0 0 -48.6553 8029.6704 31017.6094)" gradientUnits="userSpaceOnUse">
		<stop  offset="0" style="stop-color:#A82F2C"/>
		<stop  offset="0" style="stop-color:#A82F2C"/>
		<stop  offset="0.99" style="stop-color:#7E221F"/>
		<stop  offset="1" style="stop-color:#7E221F"/>
	</radialGradient>
	<path style="fill:url(#SVGID_00000181766784609500159320000016077680772562390435_);" d="M141.3,464c4,2.5,12.1,7.4,12.3,7.5
		c0.3,0.1,3.5-5.5,4.2-8.6L141.3,464L141.3,464z"/>
	
		<radialGradient id="SVGID_00000121986407288251577260000006118864565355611573_" cx="-84.1105" cy="632.6431" r="0.1568" gradientTransform="matrix(97.4344 0 0 -75.848 8325.9482 48466.25)" gradientUnits="userSpaceOnUse">
		<stop  offset="0" style="stop-color:#A42E2B"/>
		<stop  offset="0" style="stop-color:#A42E2B"/>
		<stop  offset="0.99" style="stop-color:#802320"/>
		<stop  offset="1" style="stop-color:#802320"/>
	</radialGradient>
	<path style="fill:url(#SVGID_00000121986407288251577260000006118864565355611573_);" d="M128.4,476l7,13.5c4.1-2.2,7.4-5,10.3-7.9
		L128.4,476L128.4,476z"/>
	
		<linearGradient id="SVGID_00000000911601261716524950000002215989353272581804_" gradientUnits="userSpaceOnUse" x1="-80.6589" y1="633.092" x2="-80.7538" y2="633.2511" gradientTransform="matrix(40.1367 0 0 -81.143 3357.2612 51864.2734)">
		<stop  offset="0" style="stop-color:#8B2724"/>
		<stop  offset="0" style="stop-color:#8B2724"/>
		<stop  offset="0.43" style="stop-color:#9E2D29"/>
		<stop  offset="0.99" style="stop-color:#B3322E"/>
		<stop  offset="1" style="stop-color:#B3322E"/>
	</linearGradient>
	<path style="fill:url(#SVGID_00000000911601261716524950000002215989353272581804_);" d="M116.8,478.6l-1,11.8
		c1.9,2.5,4.4,2.8,7.1,2.6C121,488.1,117.1,478.4,116.8,478.6L116.8,478.6z"/>
	
		<linearGradient id="SVGID_00000085965592713239100040000011883145753692280723_" gradientUnits="userSpaceOnUse" x1="-84.7216" y1="620.4764" x2="-84.6123" y2="620.3609" gradientTransform="matrix(78.0993 0 0 -32.6239 6765.7749 20692.8574)">
		<stop  offset="0" style="stop-color:#B3312E"/>
		<stop  offset="0" style="stop-color:#B3312E"/>
		<stop  offset="0.44" style="stop-color:#912926"/>
		<stop  offset="0.99" style="stop-color:#79211E"/>
		<stop  offset="1" style="stop-color:#79211E"/>
	</linearGradient>
	<path style="fill:url(#SVGID_00000085965592713239100040000011883145753692280723_);" d="M144.8,452.3l13.9,1.9
		c-0.7-3.1-3-5.2-6.9-5.8L144.8,452.3L144.8,452.3z"/>
</g>
<g>
	<path class="st32" d="M185.8,62.1h-36.3c-6.6,0-12-5.4-12-12V13.8c0-6.6,5.4-12,12-12h36.3c6.6,0,12,5.4,12,12v36.3
		C197.8,56.7,192.4,62.1,185.8,62.1z"/>
	<g>
		<g>
			<path class="st0" d="M163.5,39.3H158v-4.8h16.6v4.8h-5.5v16.4h-5.7V39.3z"/>
			<path class="st0" d="M177.7,50c1.3,0.6,3.4,1.3,5.5,1.3c1.9,0,2.9-0.7,2.9-1.7c0-1-1-1.6-3.4-2.4c-3.6-1.3-6-3.2-6-6.4
				c0-3.8,3.2-6.6,8.5-6.6c2.5,0,4.3,0.5,5.7,1.1l-1.2,4.5c-0.9-0.4-2.5-1-4.6-1c-1.7,0-2.7,0.6-2.7,1.6c0,1.1,1.1,1.5,3.8,2.5
				c3.8,1.4,5.5,3.4,5.5,6.4c0,3.7-2.8,6.8-9,6.8c-2.6,0-5-0.7-6.2-1.3L177.7,50z"/>
		</g>
	</g>
</g>
</svg>
