<?xml version="1.0" encoding="utf-8"?>
<!-- Generator: Adobe Illustrator 26.2.1, SVG Export Plug-In . SVG Version: 6.00 Build 0)  -->
<svg version="1.1" id="Layer_1" xmlns="http://www.w3.org/2000/svg" xmlns:xlink="http://www.w3.org/1999/xlink" x="0px" y="0px"
	 viewBox="0 0 99.5 99.5" style="enable-background:new 0 0 99.5 99.5;" xml:space="preserve">
<style type="text/css">
	.st0{fill:#FFFFFF;}
	.st1{fill:#241E1F;}
</style>
<ellipse class="st0" cx="49.8" cy="49.8" rx="49.8" ry="49.8"/>
<g>
	<path class="st1" d="M50.8,53.8c-0.6,0-1.1-0.1-1.6-0.4L18.3,35.8c-1-0.6-1.7-1.7-1.7-2.9v-1.7c0-2.9,2.4-5.4,5.4-5.4h56.4
		c3.6,0,6.6,3,6.6,6.6v0.4c0,1.2-0.6,2.3-1.7,2.9L52.4,53.3c-0.5,0.3-1.1,0.4-1.6,0.4L50.8,53.8z M20.7,32.4l30.1,17.2l30.1-17.2
		c0-1.4-1.1-2.5-2.5-2.5H21.9c-0.7,0-1.3,0.6-1.3,1.3L20.7,32.4L20.7,32.4z"/>
	<path class="st1" d="M79.6,73.7H21.9c-3,0-5.4-2.4-5.4-5.4V43.2c0-0.7,0.4-1.4,1-1.8s1.4-0.4,2,0l31.1,17.8l31.1-17.8
		c0.6-0.4,1.4-0.4,2,0s1,1,1,1.8v25.1c0,2.9-2.4,5.4-5.4,5.4H79.6z M20.7,46.7v21.6c0,0.7,0.6,1.3,1.3,1.3h57.6
		c0.7,0,1.3-0.6,1.3-1.3V46.7l-28.1,16c-1.2,0.7-2.8,0.7-4,0L20.7,46.7z"/>
</g>
</svg>
